<svg width="97" height="97" viewBox="0 0 97 97" fill="none" xmlns="http://www.w3.org/2000/svg">
<rect width="97" height="97" rx="10" fill="#5532C8"/>
<path d="M67.8226 31.7029H44.0797C43.2397 31.7029 42.6228 32.3744 42.6228 33.1598C42.6228 33.9998 43.2944 34.6167 44.0797 34.6167H67.7683C68.6083 34.6167 69.2252 33.9451 69.2252 33.1598C69.2798 32.3767 68.6083 31.7029 67.823 31.7029H67.8226Z" fill="#AA99E3"/>
<path d="M67.8226 46.5427H44.0797C43.2397 46.5427 42.6228 47.2143 42.6228 47.9996C42.6228 48.8396 43.2944 49.4565 44.0797 49.4565H67.7683C68.6083 49.4565 69.2252 48.785 69.2252 47.9996C69.2798 47.1596 68.6083 46.5427 67.823 46.5427H67.8226Z" fill="#AA99E3"/>
<path d="M67.8226 61.3284H44.0797C43.2397 61.3284 42.6228 61.9999 42.6228 62.7853C42.6228 63.6253 43.2944 64.2422 44.0797 64.2422H67.7683C68.6083 64.2422 69.2252 63.5706 69.2252 62.7853C69.2798 62 68.6083 61.3284 67.823 61.3284H67.8226Z" fill="#AA99E3"/>
<path d="M27.8967 37.1914C28.1767 37.4714 28.5683 37.6398 28.9599 37.6398C29.3514 37.6398 29.743 37.4714 30.023 37.1914L35.9601 31.2542C36.5201 30.6942 36.5201 29.7427 35.9601 29.1827C35.4001 28.6227 34.4485 28.6227 33.8885 29.1827L29.017 34.0542L27.1139 32.1511C26.5539 31.5911 25.6023 31.5911 25.0423 32.1511C24.4823 32.7111 24.4823 33.6627 25.0423 34.2227L27.8967 37.1914Z" fill="white"/>
<path d="M33.8311 43.9686L28.9596 48.8401L27.0565 46.937C26.4965 46.377 25.5449 46.377 24.9849 46.937C24.4249 47.497 24.4249 48.4486 24.9849 49.0086L27.9534 51.977C28.2334 52.257 28.6249 52.4254 29.0165 52.4254C29.4081 52.4254 29.7996 52.257 30.0796 51.977L36.0167 46.0399C36.5767 45.4799 36.5767 44.5283 36.0167 43.9683C35.343 43.4083 34.3914 43.4083 33.8314 43.9683L33.8311 43.9686Z" fill="white"/>
<path d="M33.8312 58.8084L28.9027 63.68L26.9996 61.7769C26.4396 61.2169 25.4881 61.2169 24.9281 61.7769C24.3681 62.3369 24.3681 63.2884 24.9281 63.8484L27.8965 66.8169C28.1765 67.0969 28.5681 67.2653 28.9596 67.2653C29.3512 67.2653 29.7427 67.0969 30.0227 66.8169L35.9027 60.8797C36.4627 60.3197 36.4627 59.3682 35.9027 58.8082C35.3427 58.2482 34.3912 58.2482 33.8312 58.8082V58.8084Z" fill="white"/>
</svg>
