<svg width="97" height="97" viewBox="0 0 97 97" fill="none" xmlns="http://www.w3.org/2000/svg">
<rect width="97" height="97" rx="10" fill="#5532C8"/>
<path opacity="0.5" fill-rule="evenodd" clip-rule="evenodd" d="M53.5145 49.0499C48.4209 47.6376 43.623 47.6668 38.6934 49.0369C36.217 49.7241 34.5542 51.8139 34.5542 54.2365V55.5827C34.5542 56.1811 35.0707 56.6667 35.7098 56.6667H56.5097C57.1488 56.6667 57.6653 56.1811 57.6653 55.5827V54.2517C57.6653 51.8291 55.9978 49.7382 53.5145 49.0499Z" fill="white"/>
<path opacity="0.5" fill-rule="evenodd" clip-rule="evenodd" d="M46.8342 45.1109C50.4948 45.1109 53.3342 40.9298 53.3342 37.3332C53.3342 33.6565 50.419 30.6665 46.8342 30.6665C43.2495 30.6665 40.3342 33.6565 40.3342 37.3332C40.3342 40.9298 43.1736 45.1109 46.8342 45.1109Z" fill="white"/>
<path fill-rule="evenodd" clip-rule="evenodd" d="M66.6431 62.4443C65.6719 63.5996 64.6012 64.67 63.4458 65.641L71.8041 73.9999L75.0014 70.8021L66.6431 62.4443Z" fill="white"/>
<path fill-rule="evenodd" clip-rule="evenodd" d="M46.8333 22C59.9746 22 70.6667 32.6909 70.6667 45.8333C70.6667 58.9757 59.9746 69.6667 46.8333 69.6667C33.6921 69.6667 23 58.9757 23 45.8333C23 32.6909 33.6921 22 46.8333 22ZM25.2692 45.833C25.2692 57.7236 34.9422 67.3965 46.8327 67.3965C58.7233 67.3965 68.3962 57.7236 68.3962 45.833C68.3962 33.9425 58.7233 24.2695 46.8327 24.2695C34.9422 24.2695 25.2692 33.9425 25.2692 45.833Z" fill="white"/>
</svg>
