<svg width="97" height="97" viewBox="0 0 97 97" fill="none" xmlns="http://www.w3.org/2000/svg">
<rect width="97" height="97" rx="11" fill="#5532C8"/>
<path d="M39.8182 54.3182C38.6212 54.3106 37.4659 54.1098 36.3523 53.7159C35.2462 53.322 34.2538 52.6818 33.375 51.7955C32.4962 50.9091 31.7992 49.7348 31.2841 48.2727C30.7765 46.8106 30.5227 45.0152 30.5227 42.8864C30.5303 40.9318 30.7538 39.1856 31.1932 37.6477C31.6402 36.1023 32.2765 34.7917 33.1023 33.7159C33.9356 32.6402 34.9318 31.822 36.0909 31.2614C37.25 30.6932 38.5492 30.4091 39.9886 30.4091C41.5417 30.4091 42.9129 30.7121 44.1023 31.3182C45.2917 31.9167 46.2462 32.7311 46.9659 33.7614C47.6932 34.7917 48.1326 35.947 48.2841 37.2273H43.4318C43.2424 36.4167 42.8447 35.7803 42.2386 35.3182C41.6326 34.8561 40.8826 34.625 39.9886 34.625C38.4735 34.625 37.322 35.2841 36.5341 36.6023C35.7538 37.9205 35.3561 39.7121 35.3409 41.9773H35.5C35.8485 41.2879 36.3182 40.7008 36.9091 40.2159C37.5076 39.7235 38.1856 39.3485 38.9432 39.0909C39.7083 38.8258 40.5152 38.6932 41.3636 38.6932C42.7424 38.6932 43.9697 39.0189 45.0455 39.6705C46.1212 40.3144 46.9697 41.2008 47.5909 42.3295C48.2121 43.4583 48.5227 44.75 48.5227 46.2045C48.5227 47.7803 48.1553 49.1818 47.4205 50.4091C46.6932 51.6364 45.6742 52.5985 44.3636 53.2955C43.0606 53.9848 41.5455 54.3258 39.8182 54.3182ZM39.7955 50.4545C40.553 50.4545 41.2311 50.2727 41.8295 49.9091C42.428 49.5455 42.8977 49.053 43.2386 48.4318C43.5795 47.8106 43.75 47.1136 43.75 46.3409C43.75 45.5682 43.5795 44.875 43.2386 44.2614C42.9053 43.6477 42.4432 43.1591 41.8523 42.7955C41.2614 42.4318 40.5871 42.25 39.8295 42.25C39.2614 42.25 38.7348 42.3561 38.25 42.5682C37.7727 42.7803 37.3523 43.0758 36.9886 43.4545C36.6326 43.8333 36.3523 44.2727 36.1477 44.7727C35.9432 45.2652 35.8409 45.7917 35.8409 46.3523C35.8409 47.1023 36.0114 47.7879 36.3523 48.4091C36.7008 49.0303 37.1705 49.5265 37.7614 49.8977C38.3598 50.2689 39.0379 50.4545 39.7955 50.4545ZM52.9318 54L62.5795 34.9091V34.75H51.3409V30.7273H67.6705V34.8068L58.0114 54H52.9318Z" fill="white"/>
<path d="M29.7585 73.1342C29.1586 73.1342 28.6217 72.9801 28.1477 72.6719C27.6738 72.3636 27.2992 71.9162 27.0241 71.3295C26.7491 70.7429 26.6115 70.0303 26.6115 69.1918C26.6115 68.3433 26.7507 67.6274 27.0291 67.044C27.3108 66.4574 27.6903 66.0149 28.1676 65.7166C28.6449 65.415 29.1768 65.2642 29.7635 65.2642C30.2109 65.2642 30.5788 65.3404 30.8672 65.4929C31.1555 65.642 31.3842 65.8227 31.5533 66.0348C31.7223 66.2436 31.8532 66.4408 31.946 66.6264H32.0206V62.8182H33.8253V73H32.0554V71.7969H31.946C31.8532 71.9825 31.719 72.1797 31.5433 72.3885C31.3677 72.594 31.1357 72.7696 30.8473 72.9155C30.5589 73.0613 30.196 73.1342 29.7585 73.1342ZM30.2607 71.6577C30.6418 71.6577 30.9666 71.5549 31.2351 71.3494C31.5036 71.1406 31.7074 70.8506 31.8466 70.4794C31.9858 70.1082 32.0554 69.6757 32.0554 69.1818C32.0554 68.688 31.9858 68.2588 31.8466 67.8942C31.7107 67.5296 31.5085 67.2462 31.2401 67.044C30.9749 66.8419 30.6484 66.7408 30.2607 66.7408C29.8596 66.7408 29.5249 66.8452 29.2564 67.054C28.9879 67.2628 28.7857 67.5511 28.6499 67.919C28.514 68.2869 28.446 68.7079 28.446 69.1818C28.446 69.6591 28.514 70.085 28.6499 70.4595C28.7891 70.8307 28.9929 71.1241 29.2614 71.3395C29.5331 71.5516 29.8662 71.6577 30.2607 71.6577ZM39.1238 73.1491C38.3581 73.1491 37.6969 72.9901 37.1401 72.6719C36.5866 72.3504 36.1607 71.8963 35.8624 71.3097C35.5641 70.7197 35.415 70.0253 35.415 69.2266C35.415 68.4411 35.5641 67.7517 35.8624 67.1584C36.164 66.5618 36.5849 66.0978 37.1252 65.7663C37.6654 65.4316 38.3001 65.2642 39.0293 65.2642C39.4999 65.2642 39.9441 65.3404 40.3617 65.4929C40.7826 65.642 41.1538 65.8741 41.4753 66.1889C41.8001 66.5038 42.0553 66.9048 42.2409 67.392C42.4266 67.8759 42.5194 68.4527 42.5194 69.1222V69.674H36.2601V68.4609H40.7942C40.7909 68.1162 40.7163 67.8097 40.5705 67.5412C40.4247 67.2694 40.2208 67.0556 39.959 66.8999C39.7005 66.7441 39.3989 66.6662 39.0542 66.6662C38.6863 66.6662 38.3631 66.7557 38.0847 66.9347C37.8063 67.1103 37.5892 67.3423 37.4334 67.6307C37.281 67.9157 37.2031 68.2289 37.1998 68.5703V69.6293C37.1998 70.0734 37.281 70.4545 37.4434 70.7727C37.6058 71.0876 37.8328 71.3295 38.1245 71.4986C38.4161 71.6643 38.7575 71.7472 39.1486 71.7472C39.4105 71.7472 39.6474 71.7107 39.8596 71.6378C40.0717 71.5616 40.2556 71.4505 40.4114 71.3047C40.5672 71.1589 40.6848 70.9782 40.7644 70.7628L42.4448 70.9517C42.3387 71.3958 42.1365 71.7836 41.8382 72.1151C41.5433 72.4432 41.1654 72.6984 40.7047 72.8807C40.244 73.0597 39.717 73.1491 39.1238 73.1491ZM51.636 62.8182V73H49.7915V64.6129H49.7319L47.3505 66.1342V64.4439L49.881 62.8182H51.636ZM57.9847 73.1939C57.1661 73.1939 56.4634 72.9867 55.8768 72.5724C55.2934 72.1548 54.8443 71.5533 54.5295 70.7678C54.2179 69.9789 54.0621 69.0294 54.0621 67.919C54.0655 66.8087 54.2229 65.8641 54.5344 65.0852C54.8493 64.303 55.2984 63.7064 55.8817 63.2955C56.4684 62.8845 57.1694 62.679 57.9847 62.679C58.8001 62.679 59.5011 62.8845 60.0877 63.2955C60.6744 63.7064 61.1235 64.303 61.435 65.0852C61.7499 65.8674 61.9073 66.812 61.9073 67.919C61.9073 69.0327 61.7499 69.9839 61.435 70.7727C61.1235 71.5582 60.6744 72.1581 60.0877 72.5724C59.5044 72.9867 58.8034 73.1939 57.9847 73.1939ZM57.9847 71.6378C58.6211 71.6378 59.1232 71.3246 59.4911 70.6982C59.8623 70.0684 60.0479 69.142 60.0479 67.919C60.0479 67.1103 59.9634 66.4309 59.7944 65.8807C59.6254 65.3305 59.3867 64.9162 59.0785 64.6378C58.7702 64.3561 58.4057 64.2152 57.9847 64.2152C57.3517 64.2152 56.8512 64.5301 56.4833 65.1598C56.1154 65.7862 55.9298 66.706 55.9265 67.919C55.9232 68.7311 56.0044 69.4138 56.1701 69.9673C56.3391 70.5208 56.5778 70.9384 56.886 71.2202C57.1942 71.4986 57.5605 71.6378 57.9847 71.6378ZM67.3226 73.1939C66.504 73.1939 65.8013 72.9867 65.2147 72.5724C64.6313 72.1548 64.1822 71.5533 63.8674 70.7678C63.5558 69.9789 63.4 69.0294 63.4 67.919C63.4033 66.8087 63.5608 65.8641 63.8723 65.0852C64.1872 64.303 64.6363 63.7064 65.2196 63.2955C65.8063 62.8845 66.5073 62.679 67.3226 62.679C68.138 62.679 68.839 62.8845 69.4256 63.2955C70.0123 63.7064 70.4614 64.303 70.7729 65.0852C71.0878 65.8674 71.2452 66.812 71.2452 67.919C71.2452 69.0327 71.0878 69.9839 70.7729 70.7727C70.4614 71.5582 70.0123 72.1581 69.4256 72.5724C68.8423 72.9867 68.1413 73.1939 67.3226 73.1939ZM67.3226 71.6378C67.959 71.6378 68.4611 71.3246 68.829 70.6982C69.2002 70.0684 69.3858 69.142 69.3858 67.919C69.3858 67.1103 69.3013 66.4309 69.1323 65.8807C68.9632 65.3305 68.7246 64.9162 68.4164 64.6378C68.1081 64.3561 67.7435 64.2152 67.3226 64.2152C66.6896 64.2152 66.1891 64.5301 65.8212 65.1598C65.4533 65.7862 65.2677 66.706 65.2644 67.919C65.2611 68.7311 65.3423 69.4138 65.508 69.9673C65.677 70.5208 65.9157 70.9384 66.2239 71.2202C66.5321 71.4986 66.8984 71.6378 67.3226 71.6378Z" fill="#AA99E3"/>
</svg>
